# xmcd
#
# Track frame offsets:
#	150
#	12767
#	24581
#	36553
#	52235
#	92505
#	106457
#	121279
#	152391
#	164190
#	177887
#	191422
#	211334
#	224528
#	235725
#	261305
#	276817
#	309969
#	323051
#
# Disc length: 4548 seconds
#
# Revision: 1
# Processed by: cddbd v1.4PL0 Copyright (c) Steve Scherf et al.
# Submitted via: audiograbber 1.81.02
#
DISCID=0c11c213
DTITLE=Various Artist - Blues - Feel Like Going Home
DYEAR=2003
DGENRE=Blues
TTITLE0=Robert Johnson - Traveling Riverside Blues
TTITLE1=Johnny Shines - Dynaflow Blues
TTITLE2=Robert Johnson - Hellhound On My Trail
TTITLE3=Muddy Waters - Country Blues
TTITLE4=Taj Mahal - Celebrated Walkin' Blues
TTITLE5=Muddy Waters with the Son Simms Four - Rosalie
TTITLE6=Son House  - My Black Mama Pt. II
TTITLE7=Son House - Government Fleet Blues
TTITLE8=Muddy Waters - Gypsy Woman
TTITLE9=Charley Patton - High Water Everywhere Pt. 1
TTITLE10=Lead Belly - C.C. Rider
TTITLE11=Willie King and the Liberators - Terrorized
TTITLE12=Napoleon Strickland and The Como Durm Band (With Otha Turner) - Oh Baby
TTITLE13=Otha Turner and Corey Harris - Lay My Burden Down
TTITLE14=Ali Farka Toure - Mali Kje
TTITLE15=John Lee Hooker - Tupelo Blues
TTITLE16=Ali Farka Toure - Amandrai
TTITLE17=John Lee Hooker - Down Child
TTITLE18=Salif Keita - Ananmin (It's Been So Long)
EXTD=Martin Scorsese Presents: The Blues
EXTT0=
EXTT1=
EXTT2=
EXTT3=
EXTT4=
EXTT5=
EXTT6=
EXTT7=
EXTT8=
EXTT9=
EXTT10=
EXTT11=
EXTT12=
EXTT13=
EXTT14=
EXTT15=
EXTT16=
EXTT17=
EXTT18=
PLAYORDER=
